custom-analysis
version=1
nRows=16
nColumns=42
inDegrees=no

This file contains tibia displacement and acting force.

Units are S.I. units (seconds, meters, Newtons, ...)
Angles are in degrees.

endheader
time	APT	SIT	knee_angle	aACL_R_force	pACL_R_force	aPCL_R_force	pPCL_R_force	aMCL_R_force	mMCL_R_force	pMCL_R_force	aLCL_R_force	mLCL_R_force	pLCL_R_force	aACL_R_length	pACL_R_length	aPCL_R_length	pPCL_R_length	aMCL_R_length	mMCL_R_length	pMCL_R_length	aLCL_R_length	mLCL_R_length	pLCL_R_length	aACL_R_strain	pACL_R_strain	aPCL_R_strain	pPCL_R_strain	aMCL_R_strain	mMCL_R_strain	pMCL_R_strain	aLCL_R_strain	mLCL_R_strain	pLCL_R_strain	femur_lat_meniscii_force_r	femur_lat_meniscii_torque_r	femur_med_meniscii_force_r	femur_med_meniscii_torque_r	femur_lat_tibia_force_r	femur_lat_tibia_torque_r	femur_med_tibia_force_r	femur_med_tibia_torque_r
      0.40698456	      0.00088867	      0.00019148	     15.00005728	     39.80433287	     40.54458610	      0.00000000	      0.00000000	      0.00000000	      0.00000000	      0.00000000	      5.81834757	      0.00000000	      0.37472038	      0.03433986	      0.02808392	      0.03040675	      0.02993240	      0.05601413	      0.05953770	      0.06032621	      0.05773947	      0.05546321	      0.05273446	      0.07293615	      0.06545164	     -0.02214330	     -0.00516485	     -0.03468844	     -0.00427809	     -0.00661627	      0.03148201	     -0.01518846	      0.00748460	     63.54794838	     15.69959676	     89.81314719	     22.66767738	      0.00000000	      0.00000000	      0.00000000	      0.00000000
      0.40741892	      0.00088875	      0.00019134	     15.00005728	     39.81961910	     40.55086677	      0.00000000	      0.00000000	      0.00000000	      0.00000000	      0.00000000	      5.85246557	      0.00000000	      0.41075591	      0.03433977	      0.02808376	      0.03040696	      0.02993263	      0.05601450	      0.05953806	      0.06032657	      0.05773950	      0.05546324	      0.05273450	      0.07293326	      0.06544572	     -0.02213660	     -0.00515713	     -0.03468212	     -0.00427211	     -0.00661033	      0.03148249	     -0.01518795	      0.00748522	     63.53485554	     15.69771679	     89.61711653	     22.62178702	      0.00000000	      0.00000000	      0.00000000	      0.00000000
      0.40959076	      0.00088953	      0.00019036	     15.00005728	     39.83533156	     40.51730790	      0.00000000	      0.00000000	      0.00000000	      0.00000000	      0.00000000	      5.81354324	      0.00000000	      0.38177843	      0.03433945	      0.02808304	      0.03040815	      0.02993399	      0.05601688	      0.05954038	      0.06032892	      0.05773965	      0.05546341	      0.05273469	      0.07292339	      0.06541841	     -0.02209819	     -0.00511191	     -0.03464106	     -0.00423321	     -0.00657162	      0.03148518	     -0.01518490	      0.00748893	     63.77421617	     15.76403825	     88.90089124	     22.41845062	      0.00000000	      0.00000000	      0.00000000	      0.00000000
      0.41420207	      0.00089326	      0.00018781	     15.00005728	     39.78620806	     40.34405394	      0.00000000	      0.00000000	      0.00000000	      0.00000000	      0.00000000	      5.58677608	      0.00000000	      0.17626547	      0.03433875	      0.02808101	      0.03041074	      0.02993716	      0.05602393	      0.05954724	      0.06033591	      0.05773923	      0.05546309	      0.05273445	      0.07290143	      0.06534140	     -0.02201484	     -0.00500667	     -0.03451960	     -0.00411845	     -0.00645645	      0.03147771	     -0.01519053	      0.00748425	     64.83985996	     16.04553636	     87.67818240	     22.20146155	      0.00000000	      0.00000000	      0.00000000	      0.00000000
      0.41813040	      0.00089775	      0.00018538	     15.00005728	     39.71596367	     40.16008410	      0.00000000	      0.00000000	      0.00000000	      0.00000000	      0.00000000	      5.57262076	      0.00000000	      0.17301660	      0.03433775	      0.02807850	      0.03041311	      0.02994020	      0.05603158	      0.05955468	      0.06034351	      0.05773806	      0.05546204	      0.05273347	      0.07287014	      0.06524599	     -0.02193869	     -0.00490574	     -0.03438777	     -0.00399406	     -0.00633141	      0.03145677	     -0.01520927	      0.00746563	     65.76539044	     16.31299470	     86.26676786	     21.90972045	      0.00000000	      0.00000000	      0.00000000	      0.00000000
      0.41852323	      0.00089821	      0.00018510	     15.00005728	     39.72237657	     40.15917757	      0.00000000	      0.00000000	      0.00000000	      0.00000000	      0.00000000	      5.40901357	      0.00000000	      0.00848022	      0.03433764	      0.02807823	      0.03041339	      0.02994055	      0.05603244	      0.05955552	      0.06034436	      0.05773794	      0.05546192	      0.05273337	      0.07286687	      0.06523581	     -0.02192966	     -0.00489396	     -0.03437300	     -0.00398010	     -0.00631742	      0.03145458	     -0.01521124	      0.00746366	     66.02857799	     16.38035947	     86.17134195	     21.89651135	      0.00000000	      0.00000000	      0.00000000	      0.00000000
      0.41903484	      0.00089883	      0.00018475	     15.00005728	     39.70988789	     40.13238052	      0.00000000	      0.00000000	      0.00000000	      0.00000000	      0.00000000	      5.39224772	      0.00000000	     -0.00749398	      0.03433751	      0.02807788	      0.03041373	      0.02994099	      0.05603355	      0.05955660	      0.06034546	      0.05773773	      0.05546173	      0.05273319	      0.07286264	      0.06522258	     -0.02191885	     -0.00487952	     -0.03435378	     -0.00396194	     -0.00629922	      0.03145088	     -0.01521465	      0.00746020	     66.17339932	     16.41738593	     85.95732617	     21.85188383	      0.00000000	      0.00000000	      0.00000000	      0.00000000
      0.42159286	      0.00090193	      0.00018296	     15.00005728	     39.64249781	     39.98977462	      0.00000000	      0.00000000	      0.00000000	      0.00000000	      0.00000000	      5.31145988	      0.00000000	     -0.08285573	      0.03433667	      0.02807594	      0.03041551	      0.02994328	      0.05603936	      0.05956226	      0.06035121	      0.05773657	      0.05546065	      0.05273216	      0.07283658	      0.06514880	     -0.02186147	     -0.00480319	     -0.03425365	     -0.00386731	     -0.00620449	      0.03143020	     -0.01523394	      0.00744051	     66.94058937	     16.61339225	     84.89692830	     21.58733729	      0.00000000	      0.00000000	      0.00000000	      0.00000000
      0.42757515	      0.00090906	      0.00017869	     15.00005728	     39.43426923	     39.57853146	      0.00000000	      0.00000000	      0.00000000	      0.00000000	      0.00000000	      5.17403626	      0.00000000	     -0.20213157	      0.03433347	      0.02806985	      0.03042046	      0.02994953	      0.05605426	      0.05957675	      0.06036592	      0.05773335	      0.05545757	      0.05272923	      0.07273663	      0.06491803	     -0.02170218	     -0.00459545	     -0.03399695	     -0.00362490	     -0.00596234	      0.03137254	     -0.01528851	      0.00738459	     68.92235134	     17.11916167	     82.36661195	     20.94409325	      0.00000000	      0.00000000	      0.00000000	      0.00000000
      0.42854757	      0.00091028	      0.00017801	     15.00005728	     39.43189891	     39.54582578	      0.00000000	      0.00000000	      0.00000000	      0.00000000	      0.00000000	      5.13233307	      0.00000000	     -0.24086596	      0.03433289	      0.02806878	      0.03042126	      0.02995055	      0.05605677	      0.05957920	      0.06036840	      0.05773270	      0.05545695	      0.05272863	      0.07271844	      0.06487729	     -0.02167670	     -0.00456166	     -0.03395361	     -0.00358398	     -0.00592148	      0.03136103	     -0.01529951	      0.00737323	     69.27815547	     17.20446235	     81.90771945	     20.84177022	      0.00000000	      0.00000000	      0.00000000	      0.00000000
      0.42867884	      0.00091044	      0.00017791	     15.00005728	     39.43484492	     39.54537340	      0.00000000	      0.00000000	      0.00000000	      0.00000000	      0.00000000	      5.10350983	      0.00000000	     -0.26952638	      0.03433281	      0.02806864	      0.03042136	      0.02995069	      0.05605712	      0.05957953	      0.06036874	      0.05773261	      0.05545687	      0.05272855	      0.07271608	      0.06487190	     -0.02167328	     -0.00455711	     -0.03394771	     -0.00357841	     -0.00591592	      0.03135944	     -0.01530103	      0.00737166	     69.35228181	     17.22321306	     81.85283145	     20.83155416	      0.00000000	      0.00000000	      0.00000000	      0.00000000
      0.42924153	      0.00091117	      0.00017752	     15.00005728	     39.43720003	     39.53118295	      0.00000000	      0.00000000	      0.00000000	      0.00000000	      0.00000000	      5.06985802	      0.00000000	     -0.30158797	      0.03433251	      0.02806805	      0.03042180	      0.02995125	      0.05605858	      0.05958096	      0.06037019	      0.05773221	      0.05545648	      0.05272818	      0.07270644	      0.06484940	     -0.02165929	     -0.00453824	     -0.03392240	     -0.00355450	     -0.00589205	      0.03135220	     -0.01530797	      0.00736445	     69.57765399	     17.27945795	     81.57641019	     20.77245094	      0.00000000	      0.00000000	      0.00000000	      0.00000000
      0.42978925	      0.00091190	      0.00017713	     15.00005728	     39.43936423	     39.51681076	      0.00000000	      0.00000000	      0.00000000	      0.00000000	      0.00000000	      5.04190897	      0.00000000	     -0.32750825	      0.03433222	      0.02806749	      0.03042221	      0.02995180	      0.05606002	      0.05958237	      0.06037161	      0.05773180	      0.05545608	      0.05272779	      0.07269759	      0.06482815	     -0.02164604	     -0.00452017	     -0.03389760	     -0.00353106	     -0.00586865	      0.03134485	     -0.01531502	      0.00735712	     69.79748284	     17.33472984	     81.30076997	     20.68033917	      0.00000000	      0.00000000	      0.00000000	      0.00000000
      0.43068436	      0.00091312	      0.00017648	     15.00005728	     39.43729688	     39.48653372	      0.00000000	      0.00000000	      0.00000000	      0.00000000	      0.00000000	      5.02617959	      0.00000000	     -0.33909831	      0.03433179	      0.02806660	      0.03042287	      0.02995268	      0.05606240	      0.05958469	      0.06037396	      0.05773110	      0.05545541	      0.05272714	      0.07268413	      0.06479456	     -0.02162484	     -0.00449099	     -0.03385657	     -0.00349227	     -0.00582993	      0.03133241	     -0.01532696	      0.00734468	     70.13300234	     17.42165544	     80.84508756	     20.56379618	      0.00000000	      0.00000000	      0.00000000	      0.00000000
      0.43082388	      0.00091331	      0.00017637	     15.00005728	     39.43941755	     39.48480502	      0.00000000	      0.00000000	      0.00000000	      0.00000000	      0.00000000	      5.00222412	      0.00000000	     -0.36261679	      0.03433173	      0.02806646	      0.03042297	      0.02995281	      0.05606278	      0.05958505	      0.06037433	      0.05773099	      0.05545530	      0.05272704	      0.07268209	      0.06478938	     -0.02162151	     -0.00448641	     -0.03385011	     -0.00348616	     -0.00582383	      0.03133047	     -0.01532883	      0.00734274	     70.20969237	     17.44112288	     80.78368901	     20.55159058	      0.00000000	      0.00000000	      0.00000000	      0.00000000
      0.43139385	      0.00091412	      0.00017595	     15.00005728	     39.43896628	     39.46689109	      0.00000000	      0.00000000	      0.00000000	      0.00000000	      0.00000000	      4.97943034	      0.00000000	     -0.38289545	      0.03433147	      0.02806592	      0.03042338	      0.02995336	      0.05606432	      0.05958655	      0.06037585	      0.05773053	      0.05545486	      0.05272661	      0.07267411	      0.06476862	     -0.02160838	     -0.00446811	     -0.03382365	     -0.00346114	     -0.00579885	      0.03132221	     -0.01533676	      0.00733447	     70.44400344	     17.50094568	     80.51535154	     20.48483148	      0.00000000	      0.00000000	      0.00000000	      0.00000000
